<svg xmlns="http://www.w3.org/2000/svg" width="400" height="400" viewBox="0 0 400 400">
  <defs>
    <radialGradient id="bg4" cx="50%" cy="50%" r="50%">
      <stop offset="0%" stop-color="#1a1200"/>
      <stop offset="100%" stop-color="#0e0800"/>
    </radialGradient>
    <radialGradient id="body4" cx="50%" cy="40%" r="60%">
      <stop offset="0%" stop-color="#aaffaa"/>
      <stop offset="55%" stop-color="#44cc44"/>
      <stop offset="100%" stop-color="#1a6600"/>
    </radialGradient>
    <filter id="glow4">
      <feGaussianBlur stdDeviation="5" result="blur"/>
      <feMerge><feMergeNode in="blur"/><feMergeNode in="SourceGraphic"/></feMerge>
    </filter>
  </defs>
  <rect width="400" height="400" fill="url(#bg4)" rx="18"/>
  <circle cx="42" cy="36" r="1.6" fill="#88ff88" opacity="0.9"/>
  <circle cx="118" cy="58" r="1.1" fill="#fff" opacity="0.7"/>
  <circle cx="312" cy="44" r="1.8" fill="#88ff88" opacity="0.8"/>
  <circle cx="368" cy="26" r="1.3" fill="#fff" opacity="0.6"/>
  <circle cx="74" cy="112" r="1.4" fill="#44cc44" opacity="0.8"/>
  <circle cx="343" cy="92" r="1.6" fill="#88ff88" opacity="0.9"/>
  <!-- Green aura -->
  <ellipse cx="200" cy="230" rx="112" ry="132" fill="#44cc44" opacity="0.07" filter="url(#glow4)"/>
  <!-- Wings -->
  <ellipse cx="110" cy="255" rx="56" ry="27" fill="#228822" transform="rotate(-25 110 255)"/>
  <ellipse cx="290" cy="255" rx="56" ry="27" fill="#228822" transform="rotate(25 290 255)"/>
  <path d="M95 243 Q110 260 126 250" stroke="#88ff88" stroke-width="2" fill="none" opacity="0.6"/>
  <path d="M274 250 Q290 267 306 243" stroke="#88ff88" stroke-width="2" fill="none" opacity="0.6"/>
  <!-- Body -->
  <ellipse cx="200" cy="248" rx="86" ry="96" fill="url(#body4)" filter="url(#glow4)"/>
  <ellipse cx="200" cy="235" rx="40" ry="52" fill="#00ff88" opacity="0.2" filter="url(#glow4)"/>
  <!-- Neck -->
  <ellipse cx="200" cy="178" rx="44" ry="50" fill="#66dd66"/>
  <!-- Head -->
  <circle cx="200" cy="142" r="54" fill="#77ee77" filter="url(#glow4)"/>
  <!-- Leaf crest -->
  <ellipse cx="200" cy="95" rx="10" ry="22" fill="#00cc44" transform="rotate(-15 200 95)" filter="url(#glow4)"/>
  <ellipse cx="200" cy="95" rx="10" ry="22" fill="#00cc44" transform="rotate(15 200 95)" filter="url(#glow4)"/>
  <ellipse cx="200" cy="93" rx="8" ry="18" fill="#44ff88" transform="rotate(0 200 93)" filter="url(#glow4)"/>
  <!-- Eyes -->
  <circle cx="178" cy="140" r="15" fill="#fff"/>
  <circle cx="222" cy="140" r="15" fill="#fff"/>
  <circle cx="180" cy="141" r="10" fill="#228800"/>
  <circle cx="224" cy="141" r="10" fill="#228800"/>
  <circle cx="182" cy="139" r="6" fill="#111"/>
  <circle cx="226" cy="139" r="6" fill="#111"/>
  <circle cx="184" cy="137" r="2.5" fill="#fff"/>
  <circle cx="228" cy="137" r="2.5" fill="#fff"/>
  <!-- Beak -->
  <polygon points="193,160 207,160 200,177" fill="#55cc55"/>
  <!-- Feet -->
  <line x1="182" y1="340" x2="177" y2="366" stroke="#228822" stroke-width="4" stroke-linecap="round"/>
  <line x1="218" y1="340" x2="223" y2="366" stroke="#228822" stroke-width="4" stroke-linecap="round"/>
  <line x1="177" y1="366" x2="156" y2="376" stroke="#228822" stroke-width="3" stroke-linecap="round"/>
  <line x1="177" y1="366" x2="177" y2="380" stroke="#228822" stroke-width="3" stroke-linecap="round"/>
  <line x1="177" y1="366" x2="193" y2="378" stroke="#228822" stroke-width="3" stroke-linecap="round"/>
  <line x1="223" y1="366" x2="202" y2="376" stroke="#228822" stroke-width="3" stroke-linecap="round"/>
  <line x1="223" y1="366" x2="223" y2="380" stroke="#228822" stroke-width="3" stroke-linecap="round"/>
  <line x1="223" y1="366" x2="244" y2="378" stroke="#228822" stroke-width="3" stroke-linecap="round"/>
  <text x="200" y="393" text-anchor="middle" fill="#88ff88" font-family="Arial,sans-serif" font-size="12" font-weight="bold" filter="url(#glow4)">✦ RARE #0253 ✦</text>
</svg>
