<svg xmlns="http://www.w3.org/2000/svg" width="400" height="400" viewBox="0 0 400 400">
  <defs>
    <radialGradient id="bg2" cx="50%" cy="50%" r="50%">
      <stop offset="0%" stop-color="#0a0a2e"/>
      <stop offset="100%" stop-color="#050518"/>
    </radialGradient>
    <radialGradient id="body2" cx="50%" cy="40%" r="60%">
      <stop offset="0%" stop-color="#cc88ff"/>
      <stop offset="55%" stop-color="#8800cc"/>
      <stop offset="100%" stop-color="#440066"/>
    </radialGradient>
    <filter id="glow2">
      <feGaussianBlur stdDeviation="5" result="blur"/>
      <feMerge><feMergeNode in="blur"/><feMergeNode in="SourceGraphic"/></feMerge>
    </filter>
  </defs>
  <rect width="400" height="400" fill="url(#bg2)" rx="18"/>
  <!-- Stars -->
  <circle cx="45" cy="38" r="1.5" fill="#cc88ff" opacity="0.9"/>
  <circle cx="120" cy="55" r="1" fill="#fff" opacity="0.7"/>
  <circle cx="315" cy="42" r="1.8" fill="#cc88ff" opacity="0.8"/>
  <circle cx="370" cy="25" r="1.2" fill="#fff" opacity="0.6"/>
  <circle cx="75" cy="115" r="1.4" fill="#aa44ff" opacity="0.8"/>
  <circle cx="345" cy="90" r="1.6" fill="#cc88ff" opacity="0.9"/>
  <!-- Purple aura -->
  <ellipse cx="200" cy="230" rx="115" ry="135" fill="#8800cc" opacity="0.08" filter="url(#glow2)"/>
  <!-- Wings -->
  <ellipse cx="110" cy="255" rx="56" ry="27" fill="#6600aa" transform="rotate(-25 110 255)"/>
  <ellipse cx="290" cy="255" rx="56" ry="27" fill="#6600aa" transform="rotate(25 290 255)"/>
  <path d="M95 243 Q110 260 126 250" stroke="#cc88ff" stroke-width="2" fill="none" opacity="0.6"/>
  <path d="M274 250 Q290 267 306 243" stroke="#cc88ff" stroke-width="2" fill="none" opacity="0.6"/>
  <!-- Body -->
  <ellipse cx="200" cy="248" rx="86" ry="96" fill="url(#body2)" filter="url(#glow2)"/>
  <!-- Chest shimmer -->
  <ellipse cx="200" cy="235" rx="40" ry="52" fill="#ff00ff" opacity="0.2" filter="url(#glow2)"/>
  <!-- Neck -->
  <ellipse cx="200" cy="178" rx="44" ry="50" fill="#aa55ff"/>
  <!-- Head -->
  <circle cx="200" cy="142" r="54" fill="#bb66ff" filter="url(#glow2)"/>
  <!-- Eyes -->
  <circle cx="178" cy="140" r="15" fill="#fff"/>
  <circle cx="222" cy="140" r="15" fill="#fff"/>
  <circle cx="180" cy="141" r="10" fill="#aa00ff"/>
  <circle cx="224" cy="141" r="10" fill="#aa00ff"/>
  <circle cx="182" cy="139" r="6" fill="#111"/>
  <circle cx="226" cy="139" r="6" fill="#111"/>
  <circle cx="184" cy="137" r="2.5" fill="#fff"/>
  <circle cx="228" cy="137" r="2.5" fill="#fff"/>
  <!-- Magical swirl headpiece -->
  <path d="M170 108 Q185 88 200 105 Q215 88 230 108" stroke="#ff88ff" stroke-width="3" fill="none" filter="url(#glow2)"/>
  <circle cx="200" cy="88" r="7" fill="#ff44ff" filter="url(#glow2)"/>
  <!-- Beak -->
  <polygon points="193,160 207,160 200,177" fill="#dd88ff"/>
  <!-- Feet -->
  <line x1="182" y1="340" x2="177" y2="366" stroke="#8800cc" stroke-width="4" stroke-linecap="round"/>
  <line x1="218" y1="340" x2="223" y2="366" stroke="#8800cc" stroke-width="4" stroke-linecap="round"/>
  <line x1="177" y1="366" x2="156" y2="376" stroke="#8800cc" stroke-width="3" stroke-linecap="round"/>
  <line x1="177" y1="366" x2="177" y2="380" stroke="#8800cc" stroke-width="3" stroke-linecap="round"/>
  <line x1="177" y1="366" x2="193" y2="378" stroke="#8800cc" stroke-width="3" stroke-linecap="round"/>
  <line x1="223" y1="366" x2="202" y2="376" stroke="#8800cc" stroke-width="3" stroke-linecap="round"/>
  <line x1="223" y1="366" x2="223" y2="380" stroke="#8800cc" stroke-width="3" stroke-linecap="round"/>
  <line x1="223" y1="366" x2="244" y2="378" stroke="#8800cc" stroke-width="3" stroke-linecap="round"/>
  <text x="200" y="393" text-anchor="middle" fill="#cc88ff" font-family="Arial,sans-serif" font-size="12" font-weight="bold" filter="url(#glow2)">✦ EPIC #0042 ✦</text>
</svg>
