<svg xmlns="http://www.w3.org/2000/svg" width="400" height="400" viewBox="0 0 400 400">
  <defs>
    <radialGradient id="bg5" cx="50%" cy="50%" r="50%">
      <stop offset="0%" stop-color="#1a0a00"/>
      <stop offset="100%" stop-color="#0d0500"/>
    </radialGradient>
    <radialGradient id="body5" cx="50%" cy="40%" r="60%">
      <stop offset="0%" stop-color="#ffcc88"/>
      <stop offset="55%" stop-color="#cc7722"/>
      <stop offset="100%" stop-color="#663300"/>
    </radialGradient>
    <filter id="glow5">
      <feGaussianBlur stdDeviation="4" result="blur"/>
      <feMerge><feMergeNode in="blur"/><feMergeNode in="SourceGraphic"/></feMerge>
    </filter>
  </defs>
  <rect width="400" height="400" fill="url(#bg5)" rx="18"/>
  <circle cx="42" cy="36" r="1.6" fill="#ffcc88" opacity="0.8"/>
  <circle cx="118" cy="58" r="1.1" fill="#fff" opacity="0.6"/>
  <circle cx="312" cy="44" r="1.8" fill="#ffaa44" opacity="0.7"/>
  <circle cx="368" cy="26" r="1.3" fill="#fff" opacity="0.5"/>
  <circle cx="74" cy="112" r="1.4" fill="#cc7722" opacity="0.7"/>
  <circle cx="343" cy="92" r="1.6" fill="#ffcc88" opacity="0.8"/>
  <!-- Warm aura -->
  <ellipse cx="200" cy="230" rx="112" ry="132" fill="#cc7722" opacity="0.06" filter="url(#glow5)"/>
  <!-- Wings -->
  <ellipse cx="110" cy="255" rx="56" ry="27" fill="#994411" transform="rotate(-25 110 255)"/>
  <ellipse cx="290" cy="255" rx="56" ry="27" fill="#994411" transform="rotate(25 290 255)"/>
  <path d="M95 243 Q110 260 126 250" stroke="#ffcc88" stroke-width="2" fill="none" opacity="0.6"/>
  <path d="M274 250 Q290 267 306 243" stroke="#ffcc88" stroke-width="2" fill="none" opacity="0.6"/>
  <!-- Body -->
  <ellipse cx="200" cy="248" rx="86" ry="96" fill="url(#body5)" filter="url(#glow5)"/>
  <ellipse cx="200" cy="235" rx="40" ry="52" fill="#ffaa44" opacity="0.15" filter="url(#glow5)"/>
  <!-- Neck -->
  <ellipse cx="200" cy="178" rx="44" ry="50" fill="#ddaa55"/>
  <!-- Head -->
  <circle cx="200" cy="142" r="54" fill="#eebb66" filter="url(#glow5)"/>
  <!-- Simple feather tuft -->
  <path d="M192 100 Q196 82 200 100" stroke="#cc8833" stroke-width="3" fill="none"/>
  <path d="M200 100 Q204 82 208 100" stroke="#cc8833" stroke-width="3" fill="none"/>
  <!-- Eyes -->
  <circle cx="178" cy="140" r="15" fill="#fff"/>
  <circle cx="222" cy="140" r="15" fill="#fff"/>
  <circle cx="180" cy="141" r="10" fill="#885500"/>
  <circle cx="224" cy="141" r="10" fill="#885500"/>
  <circle cx="182" cy="139" r="6" fill="#111"/>
  <circle cx="226" cy="139" r="6" fill="#111"/>
  <circle cx="184" cy="137" r="2.5" fill="#fff"/>
  <circle cx="228" cy="137" r="2.5" fill="#fff"/>
  <!-- Beak -->
  <polygon points="193,160 207,160 200,177" fill="#cc8833"/>
  <!-- Feet -->
  <line x1="182" y1="340" x2="177" y2="366" stroke="#994411" stroke-width="4" stroke-linecap="round"/>
  <line x1="218" y1="340" x2="223" y2="366" stroke="#994411" stroke-width="4" stroke-linecap="round"/>
  <line x1="177" y1="366" x2="156" y2="376" stroke="#994411" stroke-width="3" stroke-linecap="round"/>
  <line x1="177" y1="366" x2="177" y2="380" stroke="#994411" stroke-width="3" stroke-linecap="round"/>
  <line x1="177" y1="366" x2="193" y2="378" stroke="#994411" stroke-width="3" stroke-linecap="round"/>
  <line x1="223" y1="366" x2="202" y2="376" stroke="#994411" stroke-width="3" stroke-linecap="round"/>
  <line x1="223" y1="366" x2="223" y2="380" stroke="#994411" stroke-width="3" stroke-linecap="round"/>
  <line x1="223" y1="366" x2="244" y2="378" stroke="#994411" stroke-width="3" stroke-linecap="round"/>
  <text x="200" y="393" text-anchor="middle" fill="#ffcc88" font-family="Arial,sans-serif" font-size="12" font-weight="bold" filter="url(#glow5)">✦ UNCOMMON #0512 ✦</text>
</svg>
