<svg xmlns="http://www.w3.org/2000/svg" width="400" height="400" viewBox="0 0 400 400">
  <defs>
    <radialGradient id="bg3" cx="50%" cy="50%" r="50%">
      <stop offset="0%" stop-color="#001a2e"/>
      <stop offset="100%" stop-color="#000d18"/>
    </radialGradient>
    <radialGradient id="body3" cx="50%" cy="40%" r="60%">
      <stop offset="0%" stop-color="#44ddff"/>
      <stop offset="55%" stop-color="#0088cc"/>
      <stop offset="100%" stop-color="#004477"/>
    </radialGradient>
    <filter id="glow3">
      <feGaussianBlur stdDeviation="5" result="blur"/>
      <feMerge><feMergeNode in="blur"/><feMergeNode in="SourceGraphic"/></feMerge>
    </filter>
  </defs>
  <rect width="400" height="400" fill="url(#bg3)" rx="18"/>
  <circle cx="42" cy="36" r="1.6" fill="#44ddff" opacity="0.9"/>
  <circle cx="118" cy="58" r="1.1" fill="#fff" opacity="0.7"/>
  <circle cx="312" cy="44" r="1.8" fill="#44ddff" opacity="0.8"/>
  <circle cx="368" cy="26" r="1.3" fill="#fff" opacity="0.6"/>
  <circle cx="74" cy="112" r="1.4" fill="#0088cc" opacity="0.8"/>
  <circle cx="343" cy="92" r="1.6" fill="#44ddff" opacity="0.9"/>
  <!-- Blue aura -->
  <ellipse cx="200" cy="230" rx="112" ry="132" fill="#0088cc" opacity="0.08" filter="url(#glow3)"/>
  <!-- Wings -->
  <ellipse cx="110" cy="255" rx="56" ry="27" fill="#006699" transform="rotate(-25 110 255)"/>
  <ellipse cx="290" cy="255" rx="56" ry="27" fill="#006699" transform="rotate(25 290 255)"/>
  <path d="M95 243 Q110 260 126 250" stroke="#44ddff" stroke-width="2" fill="none" opacity="0.6"/>
  <path d="M274 250 Q290 267 306 243" stroke="#44ddff" stroke-width="2" fill="none" opacity="0.6"/>
  <!-- Body -->
  <ellipse cx="200" cy="248" rx="86" ry="96" fill="url(#body3)" filter="url(#glow3)"/>
  <ellipse cx="200" cy="235" rx="40" ry="52" fill="#00ffff" opacity="0.18" filter="url(#glow3)"/>
  <!-- Neck -->
  <ellipse cx="200" cy="178" rx="44" ry="50" fill="#22bbee"/>
  <!-- Head -->
  <circle cx="200" cy="142" r="54" fill="#33ccff" filter="url(#glow3)"/>
  <!-- Diamond on forehead -->
  <polygon points="200,90 215,105 200,120 185,105" fill="#00ffff" filter="url(#glow3)"/>
  <!-- Eyes -->
  <circle cx="178" cy="140" r="15" fill="#fff"/>
  <circle cx="222" cy="140" r="15" fill="#fff"/>
  <circle cx="180" cy="141" r="10" fill="#0088ff"/>
  <circle cx="224" cy="141" r="10" fill="#0088ff"/>
  <circle cx="182" cy="139" r="6" fill="#111"/>
  <circle cx="226" cy="139" r="6" fill="#111"/>
  <circle cx="184" cy="137" r="2.5" fill="#fff"/>
  <circle cx="228" cy="137" r="2.5" fill="#fff"/>
  <!-- Beak -->
  <polygon points="193,160 207,160 200,177" fill="#55ccff"/>
  <!-- Feet -->
  <line x1="182" y1="340" x2="177" y2="366" stroke="#0088cc" stroke-width="4" stroke-linecap="round"/>
  <line x1="218" y1="340" x2="223" y2="366" stroke="#0088cc" stroke-width="4" stroke-linecap="round"/>
  <line x1="177" y1="366" x2="156" y2="376" stroke="#0088cc" stroke-width="3" stroke-linecap="round"/>
  <line x1="177" y1="366" x2="177" y2="380" stroke="#0088cc" stroke-width="3" stroke-linecap="round"/>
  <line x1="177" y1="366" x2="193" y2="378" stroke="#0088cc" stroke-width="3" stroke-linecap="round"/>
  <line x1="223" y1="366" x2="202" y2="376" stroke="#0088cc" stroke-width="3" stroke-linecap="round"/>
  <line x1="223" y1="366" x2="223" y2="380" stroke="#0088cc" stroke-width="3" stroke-linecap="round"/>
  <line x1="223" y1="366" x2="244" y2="378" stroke="#0088cc" stroke-width="3" stroke-linecap="round"/>
  <text x="200" y="393" text-anchor="middle" fill="#44ddff" font-family="Arial,sans-serif" font-size="12" font-weight="bold" filter="url(#glow3)">✦ RARE #0117 ✦</text>
</svg>
