<svg xmlns="http://www.w3.org/2000/svg" viewBox="0 0 400 400" width="400" height="400">
  <defs>
    <linearGradient id="bg2" x1="0%" y1="0%" x2="100%" y2="100%">
      <stop offset="0%" style="stop-color:#0d1a3a"/>
      <stop offset="100%" style="stop-color:#050d20"/>
    </linearGradient>
    <linearGradient id="purple2" x1="0%" y1="0%" x2="100%" y2="100%">
      <stop offset="0%" style="stop-color:#8b5cf6"/>
      <stop offset="100%" style="stop-color:#ec4899"/>
    </linearGradient>
    <radialGradient id="glow2" cx="50%" cy="50%" r="50%">
      <stop offset="0%" style="stop-color:#8b5cf6;stop-opacity:0.25"/>
      <stop offset="100%" style="stop-color:#8b5cf6;stop-opacity:0"/>
    </radialGradient>
    <filter id="blur2"><feGaussianBlur stdDeviation="10"/></filter>
  </defs>
  <rect width="400" height="400" fill="url(#bg2)"/>
  <circle cx="200" cy="200" r="160" fill="url(#glow2)" filter="url(#blur2)"/>
  <!-- Stars -->
  <circle cx="40" cy="40" r="2" fill="#8b5cf6" opacity="0.9"/>
  <circle cx="100" cy="20" r="1.5" fill="#ec4899" opacity="0.7"/>
  <circle cx="350" cy="60" r="2" fill="#8b5cf6" opacity="0.8"/>
  <circle cx="380" cy="180" r="1.5" fill="#fff" opacity="0.5"/>
  <circle cx="20" cy="280" r="2" fill="#ec4899" opacity="0.6"/>
  <circle cx="360" cy="340" r="1.5" fill="#8b5cf6" opacity="0.7"/>
  <!-- Body - dark blue horse -->
  <ellipse cx="200" cy="262" rx="92" ry="66" fill="#1e3a6e"/>
  <!-- Neck -->
  <ellipse cx="178" cy="183" rx="42" ry="57" fill="#1e3a6e" transform="rotate(-10,178,183)"/>
  <!-- Head -->
  <ellipse cx="152" cy="128" rx="40" ry="33" fill="#1e3a6e" transform="rotate(-15,152,128)"/>
  <!-- Snout -->
  <ellipse cx="126" cy="146" rx="23" ry="17" fill="#152d57" transform="rotate(-15,126,146)"/>
  <!-- Eye - glowing purple -->
  <circle cx="160" cy="118" r="9" fill="#0a0a1e"/>
  <circle cx="160" cy="118" r="6" fill="#8b5cf6"/>
  <circle cx="162" cy="116" r="3" fill="#fff" opacity="0.8"/>
  <circle cx="160" cy="118" r="9" fill="none" stroke="#8b5cf6" stroke-width="2" opacity="0.5"/>
  <!-- Nostril -->
  <ellipse cx="116" cy="150" rx="5" ry="3" fill="#0e2244" transform="rotate(-15,116,150)"/>
  <!-- Mane - purple/pink -->
  <path d="M172 78 Q188 48 168 28 Q153 53 163 78 Q148 43 138 23 Q133 53 146 80 Q128 48 123 28 Q116 58 130 83" fill="none" stroke="#8b5cf6" stroke-width="9" stroke-linecap="round"/>
  <path d="M175 78 Q182 53 165 33" fill="none" stroke="#ec4899" stroke-width="5" stroke-linecap="round" opacity="0.8"/>
  <!-- Glowing horn (epic trait) -->
  <path d="M168 78 L185 30" stroke="url(#purple2)" stroke-width="6" stroke-linecap="round"/>
  <path d="M168 78 L185 30" stroke="#fff" stroke-width="2" stroke-linecap="round" opacity="0.5"/>
  <circle cx="185" cy="28" r="5" fill="#ec4899" opacity="0.9"/>
  <!-- Magic particles -->
  <circle cx="175" cy="50" r="3" fill="#8b5cf6" opacity="0.8"/>
  <circle cx="195" cy="40" r="2" fill="#ec4899" opacity="0.7"/>
  <circle cx="160" cy="35" r="2" fill="#a78bfa" opacity="0.6"/>
  <!-- Legs -->
  <rect x="146" y="312" width="23" height="64" rx="8" fill="#152d57"/>
  <rect x="176" y="312" width="23" height="64" rx="8" fill="#152d57"/>
  <rect x="220" y="312" width="23" height="59" rx="8" fill="#152d57"/>
  <rect x="250" y="312" width="23" height="59" rx="8" fill="#152d57"/>
  <!-- Glowing hooves -->
  <rect x="146" y="366" width="23" height="12" rx="4" fill="#8b5cf6"/>
  <rect x="176" y="366" width="23" height="12" rx="4" fill="#8b5cf6"/>
  <rect x="220" y="361" width="23" height="12" rx="4" fill="#ec4899"/>
  <rect x="250" y="361" width="23" height="12" rx="4" fill="#ec4899"/>
  <!-- Tail -->
  <path d="M287 257 Q332 232 342 262 Q352 292 322 312 Q302 322 287 302" fill="none" stroke="#8b5cf6" stroke-width="10" stroke-linecap="round"/>
  <path d="M287 260 Q327 240 338 267" fill="none" stroke="#ec4899" stroke-width="5" stroke-linecap="round" opacity="0.7"/>
  <!-- Badge -->
  <rect x="10" y="10" width="95" height="32" rx="16" fill="rgba(139,92,246,0.2)" stroke="#8b5cf6" stroke-width="1"/>
  <text x="57" y="31" text-anchor="middle" font-family="Arial" font-weight="bold" font-size="12" fill="#a78bfa">🔮 EPIC</text>
  <text x="390" y="390" text-anchor="end" font-family="Arial" font-size="14" fill="rgba(255,255,255,0.4)">#0042</text>
</svg>
